<svg viewBox="0 0 1024 1024" version="1.1" xmlns="http://www.w3.org/2000/svg">
    <path d="M192 128a64 64 0 0 0-64 64v213.333333a64 64 0 0 0 64 64h213.333333a64 64 0 0 0 64-64V192a64 64 0 0 0-64-64H192z m213.333333 64v213.333333H192V192h213.333333zM618.666667 128a64 64 0 0 0-64 64v213.333333a64 64 0 0 0 64 64h213.333333a64 64 0 0 0 64-64V192a64 64 0 0 0-64-64H618.666667z m213.333333 64v213.333333H618.666667V192h213.333333zM128 618.666667a64 64 0 0 1 64-64h213.333333a64 64 0 0 1 64 64v213.333333a64 64 0 0 1-64 64H192a64 64 0 0 1-64-64V618.666667z m64 0v213.333333h213.333333V618.666667H192z"
          fill="#FFFFFF"/>
    <path d="M832 618.666667v213.333333H618.666667V618.666667h213.333333z m-213.333333-64a64 64 0 0 0-64 64v213.333333a64 64 0 0 0 64 64h213.333333a64 64 0 0 0 64-64V618.666667a64 64 0 0 0-64-64H618.666667z"
          fill="#B0CCFB"/>
</svg>